<mxfile host="app.diagrams.net" modified="2024-04-05T22:19:40.998Z" agent="Mozilla/5.0 (Windows NT 10.0; Win64; x64) AppleWebKit/537.36 (KHTML, like Gecko) Chrome/123.0.0.0 Safari/537.36 Edg/123.0.0.0" etag="PqQXZ_WuObbtiYHJ_vb6" version="24.2.2" type="github">
  <diagram name="Page-1" id="A8W0ZlJkRZm1EOQpJBz_">
    <mxGraphModel dx="1273" dy="849" grid="1" gridSize="10" guides="1" tooltips="1" connect="1" arrows="1" fold="1" page="1" pageScale="1" pageWidth="850" pageHeight="1100" math="0" shadow="0">
      <root>
        <mxCell id="0" />
        <mxCell id="1" parent="0" />
        <mxCell id="uq200lhuQBNym-ZLv9r4-198" value="x4 PCIe" style="text;html=1;align=center;verticalAlign=middle;resizable=0;points=[];autosize=1;strokeColor=none;fillColor=none;fontFamily=Helvetica;fontSize=11;fontColor=default;labelBackgroundColor=default;" parent="1" vertex="1">
          <mxGeometry x="412.00000000000006" y="210" width="60" height="30" as="geometry" />
        </mxCell>
        <mxCell id="siB9gwOaP5ev9PkQdLU9-36" value="" style="group" parent="1" vertex="1" connectable="0">
          <mxGeometry x="320" y="240" width="430" height="40" as="geometry" />
        </mxCell>
        <mxCell id="siB9gwOaP5ev9PkQdLU9-27" value="CXL Switch" style="rounded=1;whiteSpace=wrap;html=1;fillColor=#d5e8d4;strokeColor=#82b366;" parent="siB9gwOaP5ev9PkQdLU9-36" vertex="1">
          <mxGeometry width="430" height="40" as="geometry" />
        </mxCell>
        <mxCell id="siB9gwOaP5ev9PkQdLU9-28" value="" style="rounded=0;whiteSpace=wrap;html=1;strokeColor=none;" parent="siB9gwOaP5ev9PkQdLU9-36" vertex="1">
          <mxGeometry x="315.3333333333333" y="16" width="11.466666666666665" height="8" as="geometry" />
        </mxCell>
        <mxCell id="siB9gwOaP5ev9PkQdLU9-32" value="" style="rounded=0;whiteSpace=wrap;html=1;strokeColor=none;" parent="siB9gwOaP5ev9PkQdLU9-36" vertex="1">
          <mxGeometry x="334.4444444444444" y="16" width="11.466666666666665" height="8" as="geometry" />
        </mxCell>
        <mxCell id="siB9gwOaP5ev9PkQdLU9-33" value="" style="rounded=0;whiteSpace=wrap;html=1;strokeColor=none;" parent="siB9gwOaP5ev9PkQdLU9-36" vertex="1">
          <mxGeometry x="353.55555555555554" y="16" width="11.466666666666665" height="8" as="geometry" />
        </mxCell>
        <mxCell id="siB9gwOaP5ev9PkQdLU9-34" value="" style="rounded=0;whiteSpace=wrap;html=1;strokeColor=none;" parent="siB9gwOaP5ev9PkQdLU9-36" vertex="1">
          <mxGeometry x="372.66666666666663" y="16" width="11.466666666666665" height="8" as="geometry" />
        </mxCell>
        <mxCell id="siB9gwOaP5ev9PkQdLU9-35" value="" style="rounded=0;whiteSpace=wrap;html=1;strokeColor=none;" parent="siB9gwOaP5ev9PkQdLU9-36" vertex="1">
          <mxGeometry x="391.7777777777778" y="16" width="11.466666666666665" height="8" as="geometry" />
        </mxCell>
        <mxCell id="siB9gwOaP5ev9PkQdLU9-102" value="" style="group" parent="1" vertex="1" connectable="0">
          <mxGeometry x="340" y="90" width="134.58" height="85" as="geometry" />
        </mxCell>
        <mxCell id="uq200lhuQBNym-ZLv9r4-11" value="" style="group;fillColor=default;gradientColor=none;strokeColor=none;" parent="siB9gwOaP5ev9PkQdLU9-102" connectable="0" vertex="1">
          <mxGeometry x="24.79105263157895" width="84.99789473684211" height="85" as="geometry" />
        </mxCell>
        <mxCell id="uq200lhuQBNym-ZLv9r4-2" value="" style="rounded=1;whiteSpace=wrap;html=1;arcSize=7;fillColor=#1ba1e2;strokeColor=#006EAF;fontColor=#ffffff;" parent="uq200lhuQBNym-ZLv9r4-11" vertex="1">
          <mxGeometry width="84.99789473684211" height="85" as="geometry" />
        </mxCell>
        <mxCell id="uq200lhuQBNym-ZLv9r4-3" value="CPU" style="rounded=1;whiteSpace=wrap;html=1;fillColor=#cce5ff;strokeColor=#146994;shadow=1;" parent="uq200lhuQBNym-ZLv9r4-11" vertex="1">
          <mxGeometry x="7.083157894736843" y="7.083333333333334" width="70.83157894736843" height="70.83333333333334" as="geometry" />
        </mxCell>
        <mxCell id="uq200lhuQBNym-ZLv9r4-13" value="DRAM" style="pointerEvents=1;shadow=0;dashed=0;html=1;strokeColor=#d79b00;fillColor=#ffcd28;labelPosition=center;verticalLabelPosition=bottom;verticalAlign=top;align=center;outlineConnect=0;shape=mxgraph.veeam.ram;fillStyle=auto;direction=north;gradientColor=#ffa500;" parent="siB9gwOaP5ev9PkQdLU9-102" vertex="1">
          <mxGeometry y="3.541666666666667" width="21.24947368421053" height="77.91666666666667" as="geometry" />
        </mxCell>
        <mxCell id="uq200lhuQBNym-ZLv9r4-48" value="DRAM" style="pointerEvents=1;shadow=0;dashed=0;html=1;strokeColor=#d79b00;fillColor=#ffcd28;labelPosition=center;verticalLabelPosition=bottom;verticalAlign=top;align=center;outlineConnect=0;shape=mxgraph.veeam.ram;fillStyle=auto;direction=south;gradientColor=#ffa500;flipV=1;" parent="siB9gwOaP5ev9PkQdLU9-102" vertex="1">
          <mxGeometry x="113.33052631578948" y="3.541666666666667" width="21.24947368421053" height="77.91666666666667" as="geometry" />
        </mxCell>
        <mxCell id="siB9gwOaP5ev9PkQdLU9-103" value="x4 PCIe" style="text;html=1;align=center;verticalAlign=middle;resizable=0;points=[];autosize=1;strokeColor=none;fillColor=none;fontFamily=Helvetica;fontSize=11;fontColor=default;labelBackgroundColor=default;" parent="1" vertex="1">
          <mxGeometry x="652" y="210" width="60" height="30" as="geometry" />
        </mxCell>
        <mxCell id="siB9gwOaP5ev9PkQdLU9-106" value="" style="group" parent="1" vertex="1" connectable="0">
          <mxGeometry x="580" y="90" width="134.58" height="85" as="geometry" />
        </mxCell>
        <mxCell id="siB9gwOaP5ev9PkQdLU9-107" value="" style="group;fillColor=default;gradientColor=none;strokeColor=none;" parent="siB9gwOaP5ev9PkQdLU9-106" connectable="0" vertex="1">
          <mxGeometry x="24.79105263157895" width="84.99789473684211" height="85" as="geometry" />
        </mxCell>
        <mxCell id="siB9gwOaP5ev9PkQdLU9-108" value="" style="rounded=1;whiteSpace=wrap;html=1;arcSize=7;fillColor=#d80073;strokeColor=#A50040;fontColor=#ffffff;" parent="siB9gwOaP5ev9PkQdLU9-107" vertex="1">
          <mxGeometry width="84.99789473684211" height="85" as="geometry" />
        </mxCell>
        <mxCell id="siB9gwOaP5ev9PkQdLU9-109" value="CPU" style="rounded=1;whiteSpace=wrap;html=1;fillColor=#f8cecc;strokeColor=#b85450;shadow=1;" parent="siB9gwOaP5ev9PkQdLU9-107" vertex="1">
          <mxGeometry x="7.083157894736843" y="7.083333333333334" width="70.83157894736843" height="70.83333333333334" as="geometry" />
        </mxCell>
        <mxCell id="siB9gwOaP5ev9PkQdLU9-110" value="DRAM" style="pointerEvents=1;shadow=0;dashed=0;html=1;strokeColor=#d79b00;fillColor=#ffcd28;labelPosition=center;verticalLabelPosition=bottom;verticalAlign=top;align=center;outlineConnect=0;shape=mxgraph.veeam.ram;fillStyle=auto;direction=north;gradientColor=#ffa500;" parent="siB9gwOaP5ev9PkQdLU9-106" vertex="1">
          <mxGeometry y="3.541666666666667" width="21.24947368421053" height="77.91666666666667" as="geometry" />
        </mxCell>
        <mxCell id="siB9gwOaP5ev9PkQdLU9-111" value="DRAM" style="pointerEvents=1;shadow=0;dashed=0;html=1;strokeColor=#d79b00;fillColor=#ffcd28;labelPosition=center;verticalLabelPosition=bottom;verticalAlign=top;align=center;outlineConnect=0;shape=mxgraph.veeam.ram;fillStyle=auto;direction=south;gradientColor=#ffa500;flipV=1;" parent="siB9gwOaP5ev9PkQdLU9-106" vertex="1">
          <mxGeometry x="113.33052631578948" y="3.541666666666667" width="21.24947368421053" height="77.91666666666667" as="geometry" />
        </mxCell>
        <mxCell id="j0kA9mQv0XeUaCMalJ7W-1" style="rounded=0;orthogonalLoop=1;jettySize=auto;html=1;endArrow=none;endFill=0;strokeWidth=4;" parent="1" source="uq200lhuQBNym-ZLv9r4-2" edge="1">
          <mxGeometry relative="1" as="geometry">
            <mxPoint x="407" y="240" as="targetPoint" />
          </mxGeometry>
        </mxCell>
        <mxCell id="j0kA9mQv0XeUaCMalJ7W-2" style="rounded=0;orthogonalLoop=1;jettySize=auto;html=1;entryX=0.76;entryY=0;entryDx=0;entryDy=0;entryPerimeter=0;strokeColor=default;strokeWidth=4;align=center;verticalAlign=middle;fontFamily=Helvetica;fontSize=11;fontColor=default;labelBackgroundColor=default;endArrow=none;endFill=0;" parent="1" source="siB9gwOaP5ev9PkQdLU9-108" target="siB9gwOaP5ev9PkQdLU9-27" edge="1">
          <mxGeometry relative="1" as="geometry" />
        </mxCell>
        <mxCell id="VBqdkLWTMI1Qyz4IS_f9-118" value="" style="group" connectable="0" vertex="1" parent="1">
          <mxGeometry x="332.99999999999994" y="559.9994117647059" width="80" height="93.5305882352942" as="geometry" />
        </mxCell>
        <mxCell id="VBqdkLWTMI1Qyz4IS_f9-119" value="" style="rounded=1;whiteSpace=wrap;html=1;direction=south;fillColor=#ffb20d;arcSize=7;strokeColor=#d79b00;rotation=90;" vertex="1" parent="VBqdkLWTMI1Qyz4IS_f9-118">
          <mxGeometry x="15.710000000000036" y="-10.179411764705833" width="19.641176470588235" height="40" as="geometry" />
        </mxCell>
        <mxCell id="VBqdkLWTMI1Qyz4IS_f9-120" value="" style="rounded=0;whiteSpace=wrap;html=1;strokeWidth=1;fillColor=#a2d460;strokeColor=#60a512;fontSize=10;gradientColor=#60a512;rotation=90;" vertex="1" parent="VBqdkLWTMI1Qyz4IS_f9-118">
          <mxGeometry x="-2.9999999999999716" y="10.530588235294204" width="86" height="80" as="geometry" />
        </mxCell>
        <mxCell id="VBqdkLWTMI1Qyz4IS_f9-121" value="" style="ellipse;whiteSpace=wrap;html=1;aspect=fixed;strokeWidth=3;shadow=0;strokeColor=#ffffff;rotation=90;" vertex="1" parent="VBqdkLWTMI1Qyz4IS_f9-118">
          <mxGeometry x="73.71000000000004" y="12.820588235294167" width="2" height="2" as="geometry" />
        </mxCell>
        <mxCell id="VBqdkLWTMI1Qyz4IS_f9-122" value="" style="ellipse;whiteSpace=wrap;html=1;aspect=fixed;strokeWidth=3;shadow=0;strokeColor=#ffffff;rotation=90;" vertex="1" parent="VBqdkLWTMI1Qyz4IS_f9-118">
          <mxGeometry x="73.71000000000004" y="85.82058823529417" width="2" height="2" as="geometry" />
        </mxCell>
        <mxCell id="VBqdkLWTMI1Qyz4IS_f9-123" value="" style="ellipse;whiteSpace=wrap;html=1;aspect=fixed;strokeWidth=3;shadow=0;strokeColor=#ffffff;rotation=90;" vertex="1" parent="VBqdkLWTMI1Qyz4IS_f9-118">
          <mxGeometry x="5.710000000000036" y="12.820588235294167" width="2" height="2" as="geometry" />
        </mxCell>
        <mxCell id="VBqdkLWTMI1Qyz4IS_f9-124" value="" style="ellipse;whiteSpace=wrap;html=1;aspect=fixed;strokeWidth=3;shadow=0;strokeColor=#ffffff;rotation=90;" vertex="1" parent="VBqdkLWTMI1Qyz4IS_f9-118">
          <mxGeometry x="5.710000000000036" y="85.82058823529417" width="2" height="2" as="geometry" />
        </mxCell>
        <mxCell id="VBqdkLWTMI1Qyz4IS_f9-125" value="" style="rounded=1;whiteSpace=wrap;html=1;fillColor=#f8cecc;strokeColor=#b85450;" vertex="1" parent="VBqdkLWTMI1Qyz4IS_f9-118">
          <mxGeometry x="5" y="20" width="70" height="10" as="geometry" />
        </mxCell>
        <mxCell id="VBqdkLWTMI1Qyz4IS_f9-126" value="" style="rounded=1;whiteSpace=wrap;html=1;fillColor=#f8cecc;strokeColor=#b85450;" vertex="1" parent="VBqdkLWTMI1Qyz4IS_f9-118">
          <mxGeometry x="5" y="30" width="70" height="10" as="geometry" />
        </mxCell>
        <mxCell id="VBqdkLWTMI1Qyz4IS_f9-127" value="" style="rounded=1;whiteSpace=wrap;html=1;fillColor=#f8cecc;strokeColor=#b85450;" vertex="1" parent="VBqdkLWTMI1Qyz4IS_f9-118">
          <mxGeometry x="5" y="40" width="70" height="10" as="geometry" />
        </mxCell>
        <mxCell id="VBqdkLWTMI1Qyz4IS_f9-128" value="" style="rounded=1;whiteSpace=wrap;html=1;fillColor=#f8cecc;strokeColor=#b85450;" vertex="1" parent="VBqdkLWTMI1Qyz4IS_f9-118">
          <mxGeometry x="5" y="50" width="70" height="10" as="geometry" />
        </mxCell>
        <mxCell id="VBqdkLWTMI1Qyz4IS_f9-129" value="" style="rounded=1;whiteSpace=wrap;html=1;gradientColor=#ffaa05;fillColor=#ffcb26;strokeColor=#d79b00;" vertex="1" parent="VBqdkLWTMI1Qyz4IS_f9-118">
          <mxGeometry x="5" y="60" width="70" height="10" as="geometry" />
        </mxCell>
        <mxCell id="VBqdkLWTMI1Qyz4IS_f9-130" value="" style="rounded=1;whiteSpace=wrap;html=1;gradientColor=#ffaa05;fillColor=#ffcb26;strokeColor=#d79b00;" vertex="1" parent="VBqdkLWTMI1Qyz4IS_f9-118">
          <mxGeometry x="5" y="70" width="70" height="10" as="geometry" />
        </mxCell>
        <mxCell id="VBqdkLWTMI1Qyz4IS_f9-131" value="" style="group" connectable="0" vertex="1" parent="1">
          <mxGeometry x="430" y="559.9994117647059" width="80" height="93.5305882352942" as="geometry" />
        </mxCell>
        <mxCell id="VBqdkLWTMI1Qyz4IS_f9-132" value="" style="rounded=1;whiteSpace=wrap;html=1;direction=south;fillColor=#ffb20d;arcSize=7;strokeColor=#d79b00;rotation=90;" vertex="1" parent="VBqdkLWTMI1Qyz4IS_f9-131">
          <mxGeometry x="15.710000000000036" y="-10.179411764705833" width="19.641176470588235" height="40" as="geometry" />
        </mxCell>
        <mxCell id="VBqdkLWTMI1Qyz4IS_f9-133" value="" style="rounded=0;whiteSpace=wrap;html=1;strokeWidth=1;fillColor=#a2d460;strokeColor=#60a512;fontSize=10;gradientColor=#60a512;rotation=90;" vertex="1" parent="VBqdkLWTMI1Qyz4IS_f9-131">
          <mxGeometry x="-2.9999999999999716" y="10.530588235294204" width="86" height="80" as="geometry" />
        </mxCell>
        <mxCell id="VBqdkLWTMI1Qyz4IS_f9-134" value="" style="ellipse;whiteSpace=wrap;html=1;aspect=fixed;strokeWidth=3;shadow=0;strokeColor=#ffffff;rotation=90;" vertex="1" parent="VBqdkLWTMI1Qyz4IS_f9-131">
          <mxGeometry x="73.71000000000004" y="12.820588235294167" width="2" height="2" as="geometry" />
        </mxCell>
        <mxCell id="VBqdkLWTMI1Qyz4IS_f9-135" value="" style="ellipse;whiteSpace=wrap;html=1;aspect=fixed;strokeWidth=3;shadow=0;strokeColor=#ffffff;rotation=90;" vertex="1" parent="VBqdkLWTMI1Qyz4IS_f9-131">
          <mxGeometry x="73.71000000000004" y="85.82058823529417" width="2" height="2" as="geometry" />
        </mxCell>
        <mxCell id="VBqdkLWTMI1Qyz4IS_f9-136" value="" style="ellipse;whiteSpace=wrap;html=1;aspect=fixed;strokeWidth=3;shadow=0;strokeColor=#ffffff;rotation=90;" vertex="1" parent="VBqdkLWTMI1Qyz4IS_f9-131">
          <mxGeometry x="5.710000000000036" y="12.820588235294167" width="2" height="2" as="geometry" />
        </mxCell>
        <mxCell id="VBqdkLWTMI1Qyz4IS_f9-137" value="" style="ellipse;whiteSpace=wrap;html=1;aspect=fixed;strokeWidth=3;shadow=0;strokeColor=#ffffff;rotation=90;" vertex="1" parent="VBqdkLWTMI1Qyz4IS_f9-131">
          <mxGeometry x="5.710000000000036" y="85.82058823529417" width="2" height="2" as="geometry" />
        </mxCell>
        <mxCell id="VBqdkLWTMI1Qyz4IS_f9-138" value="" style="rounded=1;whiteSpace=wrap;html=1;gradientColor=#ffaa05;fillColor=#ffcb26;strokeColor=#d79b00;" vertex="1" parent="VBqdkLWTMI1Qyz4IS_f9-131">
          <mxGeometry x="5" y="20" width="70" height="10" as="geometry" />
        </mxCell>
        <mxCell id="VBqdkLWTMI1Qyz4IS_f9-139" value="" style="rounded=1;whiteSpace=wrap;html=1;gradientColor=#ffaa05;fillColor=#ffcb26;strokeColor=#d79b00;" vertex="1" parent="VBqdkLWTMI1Qyz4IS_f9-131">
          <mxGeometry x="5" y="30" width="70" height="10" as="geometry" />
        </mxCell>
        <mxCell id="VBqdkLWTMI1Qyz4IS_f9-140" value="" style="rounded=1;whiteSpace=wrap;html=1;gradientColor=#ffaa05;fillColor=#ffcb26;strokeColor=#d79b00;" vertex="1" parent="VBqdkLWTMI1Qyz4IS_f9-131">
          <mxGeometry x="5" y="40" width="70" height="10" as="geometry" />
        </mxCell>
        <mxCell id="VBqdkLWTMI1Qyz4IS_f9-141" value="" style="rounded=1;whiteSpace=wrap;html=1;gradientColor=#ffaa05;fillColor=#ffcb26;strokeColor=#d79b00;" vertex="1" parent="VBqdkLWTMI1Qyz4IS_f9-131">
          <mxGeometry x="5" y="50" width="70" height="10" as="geometry" />
        </mxCell>
        <mxCell id="VBqdkLWTMI1Qyz4IS_f9-142" value="" style="rounded=1;whiteSpace=wrap;html=1;gradientColor=#ffaa05;fillColor=#ffcb26;strokeColor=#d79b00;" vertex="1" parent="VBqdkLWTMI1Qyz4IS_f9-131">
          <mxGeometry x="5" y="60" width="70" height="10" as="geometry" />
        </mxCell>
        <mxCell id="VBqdkLWTMI1Qyz4IS_f9-143" value="" style="rounded=1;whiteSpace=wrap;html=1;gradientColor=#ffaa05;fillColor=#ffcb26;strokeColor=#d79b00;" vertex="1" parent="VBqdkLWTMI1Qyz4IS_f9-131">
          <mxGeometry x="5" y="70" width="70" height="10" as="geometry" />
        </mxCell>
        <mxCell id="VBqdkLWTMI1Qyz4IS_f9-144" value="" style="group" connectable="0" vertex="1" parent="1">
          <mxGeometry x="139.99999999999994" y="559.9994117647059" width="80" height="93.5305882352942" as="geometry" />
        </mxCell>
        <mxCell id="VBqdkLWTMI1Qyz4IS_f9-145" value="" style="rounded=1;whiteSpace=wrap;html=1;direction=south;fillColor=#ffb20d;arcSize=7;strokeColor=#d79b00;rotation=90;" vertex="1" parent="VBqdkLWTMI1Qyz4IS_f9-144">
          <mxGeometry x="15.710000000000036" y="-10.179411764705833" width="19.641176470588235" height="40" as="geometry" />
        </mxCell>
        <mxCell id="VBqdkLWTMI1Qyz4IS_f9-146" value="" style="rounded=0;whiteSpace=wrap;html=1;strokeWidth=1;fillColor=#a2d460;strokeColor=#60a512;fontSize=10;gradientColor=#60a512;rotation=90;" vertex="1" parent="VBqdkLWTMI1Qyz4IS_f9-144">
          <mxGeometry x="-2.9999999999999716" y="10.530588235294204" width="86" height="80" as="geometry" />
        </mxCell>
        <mxCell id="VBqdkLWTMI1Qyz4IS_f9-147" value="" style="ellipse;whiteSpace=wrap;html=1;aspect=fixed;strokeWidth=3;shadow=0;strokeColor=#ffffff;rotation=90;" vertex="1" parent="VBqdkLWTMI1Qyz4IS_f9-144">
          <mxGeometry x="73.71000000000004" y="12.820588235294167" width="2" height="2" as="geometry" />
        </mxCell>
        <mxCell id="VBqdkLWTMI1Qyz4IS_f9-148" value="" style="ellipse;whiteSpace=wrap;html=1;aspect=fixed;strokeWidth=3;shadow=0;strokeColor=#ffffff;rotation=90;" vertex="1" parent="VBqdkLWTMI1Qyz4IS_f9-144">
          <mxGeometry x="73.71000000000004" y="85.82058823529417" width="2" height="2" as="geometry" />
        </mxCell>
        <mxCell id="VBqdkLWTMI1Qyz4IS_f9-149" value="" style="ellipse;whiteSpace=wrap;html=1;aspect=fixed;strokeWidth=3;shadow=0;strokeColor=#ffffff;rotation=90;" vertex="1" parent="VBqdkLWTMI1Qyz4IS_f9-144">
          <mxGeometry x="5.710000000000036" y="12.820588235294167" width="2" height="2" as="geometry" />
        </mxCell>
        <mxCell id="VBqdkLWTMI1Qyz4IS_f9-150" value="" style="ellipse;whiteSpace=wrap;html=1;aspect=fixed;strokeWidth=3;shadow=0;strokeColor=#ffffff;rotation=90;" vertex="1" parent="VBqdkLWTMI1Qyz4IS_f9-144">
          <mxGeometry x="5.710000000000036" y="85.82058823529417" width="2" height="2" as="geometry" />
        </mxCell>
        <mxCell id="VBqdkLWTMI1Qyz4IS_f9-151" value="" style="rounded=1;whiteSpace=wrap;html=1;fillColor=#f8cecc;strokeColor=#b85450;" vertex="1" parent="VBqdkLWTMI1Qyz4IS_f9-144">
          <mxGeometry x="5" y="20" width="70" height="10" as="geometry" />
        </mxCell>
        <mxCell id="VBqdkLWTMI1Qyz4IS_f9-152" value="" style="rounded=1;whiteSpace=wrap;html=1;fillColor=#f8cecc;strokeColor=#b85450;" vertex="1" parent="VBqdkLWTMI1Qyz4IS_f9-144">
          <mxGeometry x="5" y="30" width="70" height="10" as="geometry" />
        </mxCell>
        <mxCell id="VBqdkLWTMI1Qyz4IS_f9-153" value="" style="rounded=1;whiteSpace=wrap;html=1;fillColor=#f8cecc;strokeColor=#b85450;" vertex="1" parent="VBqdkLWTMI1Qyz4IS_f9-144">
          <mxGeometry x="5" y="40" width="70" height="10" as="geometry" />
        </mxCell>
        <mxCell id="VBqdkLWTMI1Qyz4IS_f9-154" value="" style="rounded=1;whiteSpace=wrap;html=1;fillColor=#dae8fc;strokeColor=#6c8ebf;" vertex="1" parent="VBqdkLWTMI1Qyz4IS_f9-144">
          <mxGeometry x="5" y="50" width="70" height="10" as="geometry" />
        </mxCell>
        <mxCell id="VBqdkLWTMI1Qyz4IS_f9-155" value="" style="rounded=1;whiteSpace=wrap;html=1;fillColor=#dae8fc;strokeColor=#6c8ebf;" vertex="1" parent="VBqdkLWTMI1Qyz4IS_f9-144">
          <mxGeometry x="5" y="60" width="70" height="10" as="geometry" />
        </mxCell>
        <mxCell id="VBqdkLWTMI1Qyz4IS_f9-156" value="" style="rounded=1;whiteSpace=wrap;html=1;fillColor=#dae8fc;strokeColor=#6c8ebf;" vertex="1" parent="VBqdkLWTMI1Qyz4IS_f9-144">
          <mxGeometry x="5" y="70" width="70" height="10" as="geometry" />
        </mxCell>
        <mxCell id="VBqdkLWTMI1Qyz4IS_f9-157" value="Multi-Logical Device (MLD)" style="text;html=1;align=center;verticalAlign=middle;resizable=0;points=[];autosize=1;strokeColor=none;fillColor=none;fontFamily=Helvetica;fontSize=11;fontColor=default;labelBackgroundColor=default;" vertex="1" parent="1">
          <mxGeometry x="100.00000000000006" y="660" width="160" height="30" as="geometry" />
        </mxCell>
        <mxCell id="VBqdkLWTMI1Qyz4IS_f9-158" value="" style="group" connectable="0" vertex="1" parent="1">
          <mxGeometry x="236.99999999999994" y="559.9994117647059" width="80" height="93.5305882352942" as="geometry" />
        </mxCell>
        <mxCell id="VBqdkLWTMI1Qyz4IS_f9-159" value="" style="rounded=1;whiteSpace=wrap;html=1;direction=south;fillColor=#ffb20d;arcSize=7;strokeColor=#d79b00;rotation=90;" vertex="1" parent="VBqdkLWTMI1Qyz4IS_f9-158">
          <mxGeometry x="15.710000000000036" y="-10.179411764705833" width="19.641176470588235" height="40" as="geometry" />
        </mxCell>
        <mxCell id="VBqdkLWTMI1Qyz4IS_f9-160" value="" style="rounded=0;whiteSpace=wrap;html=1;strokeWidth=1;fillColor=#a2d460;strokeColor=#60a512;fontSize=10;gradientColor=#60a512;rotation=90;" vertex="1" parent="VBqdkLWTMI1Qyz4IS_f9-158">
          <mxGeometry x="-2.9999999999999716" y="10.530588235294204" width="86" height="80" as="geometry" />
        </mxCell>
        <mxCell id="VBqdkLWTMI1Qyz4IS_f9-161" value="" style="ellipse;whiteSpace=wrap;html=1;aspect=fixed;strokeWidth=3;shadow=0;strokeColor=#ffffff;rotation=90;" vertex="1" parent="VBqdkLWTMI1Qyz4IS_f9-158">
          <mxGeometry x="73.71000000000004" y="12.820588235294167" width="2" height="2" as="geometry" />
        </mxCell>
        <mxCell id="VBqdkLWTMI1Qyz4IS_f9-162" value="" style="ellipse;whiteSpace=wrap;html=1;aspect=fixed;strokeWidth=3;shadow=0;strokeColor=#ffffff;rotation=90;" vertex="1" parent="VBqdkLWTMI1Qyz4IS_f9-158">
          <mxGeometry x="73.71000000000004" y="85.82058823529417" width="2" height="2" as="geometry" />
        </mxCell>
        <mxCell id="VBqdkLWTMI1Qyz4IS_f9-163" value="" style="ellipse;whiteSpace=wrap;html=1;aspect=fixed;strokeWidth=3;shadow=0;strokeColor=#ffffff;rotation=90;" vertex="1" parent="VBqdkLWTMI1Qyz4IS_f9-158">
          <mxGeometry x="5.710000000000036" y="12.820588235294167" width="2" height="2" as="geometry" />
        </mxCell>
        <mxCell id="VBqdkLWTMI1Qyz4IS_f9-164" value="" style="ellipse;whiteSpace=wrap;html=1;aspect=fixed;strokeWidth=3;shadow=0;strokeColor=#ffffff;rotation=90;" vertex="1" parent="VBqdkLWTMI1Qyz4IS_f9-158">
          <mxGeometry x="5.710000000000036" y="85.82058823529417" width="2" height="2" as="geometry" />
        </mxCell>
        <mxCell id="VBqdkLWTMI1Qyz4IS_f9-165" value="" style="rounded=1;whiteSpace=wrap;html=1;fillColor=#dae8fc;strokeColor=#6c8ebf;" vertex="1" parent="VBqdkLWTMI1Qyz4IS_f9-158">
          <mxGeometry x="5" y="20" width="70" height="10" as="geometry" />
        </mxCell>
        <mxCell id="VBqdkLWTMI1Qyz4IS_f9-166" value="" style="rounded=1;whiteSpace=wrap;html=1;fillColor=#dae8fc;strokeColor=#6c8ebf;" vertex="1" parent="VBqdkLWTMI1Qyz4IS_f9-158">
          <mxGeometry x="5" y="30" width="70" height="10" as="geometry" />
        </mxCell>
        <mxCell id="VBqdkLWTMI1Qyz4IS_f9-167" value="" style="rounded=1;whiteSpace=wrap;html=1;fillColor=#dae8fc;strokeColor=#6c8ebf;" vertex="1" parent="VBqdkLWTMI1Qyz4IS_f9-158">
          <mxGeometry x="5" y="40" width="70" height="10" as="geometry" />
        </mxCell>
        <mxCell id="VBqdkLWTMI1Qyz4IS_f9-168" value="" style="rounded=1;whiteSpace=wrap;html=1;fillColor=#dae8fc;strokeColor=#6c8ebf;" vertex="1" parent="VBqdkLWTMI1Qyz4IS_f9-158">
          <mxGeometry x="5" y="50" width="70" height="10" as="geometry" />
        </mxCell>
        <mxCell id="VBqdkLWTMI1Qyz4IS_f9-169" value="" style="rounded=1;whiteSpace=wrap;html=1;fillColor=#dae8fc;strokeColor=#6c8ebf;" vertex="1" parent="VBqdkLWTMI1Qyz4IS_f9-158">
          <mxGeometry x="5" y="60" width="70" height="10" as="geometry" />
        </mxCell>
        <mxCell id="VBqdkLWTMI1Qyz4IS_f9-170" value="" style="rounded=1;whiteSpace=wrap;html=1;fillColor=#f8cecc;strokeColor=#b85450;" vertex="1" parent="VBqdkLWTMI1Qyz4IS_f9-158">
          <mxGeometry x="5" y="70" width="70" height="10" as="geometry" />
        </mxCell>
        <mxCell id="VBqdkLWTMI1Qyz4IS_f9-171" style="rounded=0;orthogonalLoop=1;jettySize=auto;html=1;entryX=0.5;entryY=1;entryDx=0;entryDy=0;strokeColor=default;strokeWidth=4;align=center;verticalAlign=middle;fontFamily=Helvetica;fontSize=11;fontColor=default;labelBackgroundColor=default;endArrow=none;endFill=0;exitX=0.176;exitY=0.995;exitDx=0;exitDy=0;exitPerimeter=0;" edge="1" parent="1" target="VBqdkLWTMI1Qyz4IS_f9-145">
          <mxGeometry relative="1" as="geometry">
            <mxPoint x="166" y="480" as="sourcePoint" />
          </mxGeometry>
        </mxCell>
        <mxCell id="VBqdkLWTMI1Qyz4IS_f9-172" style="rounded=0;orthogonalLoop=1;jettySize=auto;html=1;entryX=0.4;entryY=1;entryDx=0;entryDy=0;entryPerimeter=0;strokeColor=default;strokeWidth=4;align=center;verticalAlign=middle;fontFamily=Helvetica;fontSize=11;fontColor=default;labelBackgroundColor=default;endArrow=none;endFill=0;" edge="1" parent="1" source="VBqdkLWTMI1Qyz4IS_f9-159">
          <mxGeometry relative="1" as="geometry">
            <mxPoint x="262" y="480" as="targetPoint" />
          </mxGeometry>
        </mxCell>
        <mxCell id="VBqdkLWTMI1Qyz4IS_f9-173" style="rounded=0;orthogonalLoop=1;jettySize=auto;html=1;entryX=0.623;entryY=1;entryDx=0;entryDy=0;entryPerimeter=0;strokeColor=default;strokeWidth=4;align=center;verticalAlign=middle;fontFamily=Helvetica;fontSize=11;fontColor=default;labelBackgroundColor=default;endArrow=none;endFill=0;" edge="1" parent="1" source="VBqdkLWTMI1Qyz4IS_f9-119">
          <mxGeometry relative="1" as="geometry">
            <mxPoint x="358" y="480" as="targetPoint" />
          </mxGeometry>
        </mxCell>
        <mxCell id="VBqdkLWTMI1Qyz4IS_f9-174" style="rounded=0;orthogonalLoop=1;jettySize=auto;html=1;entryX=0.852;entryY=1;entryDx=0;entryDy=0;entryPerimeter=0;strokeColor=default;strokeWidth=4;align=center;verticalAlign=middle;fontFamily=Helvetica;fontSize=11;fontColor=default;labelBackgroundColor=default;endArrow=none;endFill=0;" edge="1" parent="1" source="VBqdkLWTMI1Qyz4IS_f9-132">
          <mxGeometry relative="1" as="geometry">
            <mxPoint x="456" y="480" as="targetPoint" />
          </mxGeometry>
        </mxCell>
        <mxCell id="VBqdkLWTMI1Qyz4IS_f9-175" value="x4 PCIe" style="text;html=1;align=center;verticalAlign=middle;resizable=0;points=[];autosize=1;strokeColor=none;fillColor=none;fontFamily=Helvetica;fontSize=11;fontColor=default;labelBackgroundColor=default;" vertex="1" parent="1">
          <mxGeometry x="455" y="480" width="60" height="30" as="geometry" />
        </mxCell>
        <mxCell id="VBqdkLWTMI1Qyz4IS_f9-176" value="" style="group" vertex="1" connectable="0" parent="1">
          <mxGeometry x="110" y="440" width="430" height="40" as="geometry" />
        </mxCell>
        <mxCell id="VBqdkLWTMI1Qyz4IS_f9-177" value="CXL Switch" style="rounded=1;whiteSpace=wrap;html=1;fillColor=#d5e8d4;strokeColor=#82b366;" vertex="1" parent="VBqdkLWTMI1Qyz4IS_f9-176">
          <mxGeometry width="430" height="40" as="geometry" />
        </mxCell>
        <mxCell id="VBqdkLWTMI1Qyz4IS_f9-178" value="" style="rounded=0;whiteSpace=wrap;html=1;strokeColor=none;" vertex="1" parent="VBqdkLWTMI1Qyz4IS_f9-176">
          <mxGeometry x="315.3333333333333" y="16" width="11.466666666666665" height="8" as="geometry" />
        </mxCell>
        <mxCell id="VBqdkLWTMI1Qyz4IS_f9-179" value="" style="rounded=0;whiteSpace=wrap;html=1;strokeColor=none;" vertex="1" parent="VBqdkLWTMI1Qyz4IS_f9-176">
          <mxGeometry x="334.4444444444444" y="16" width="11.466666666666665" height="8" as="geometry" />
        </mxCell>
        <mxCell id="VBqdkLWTMI1Qyz4IS_f9-180" value="" style="rounded=0;whiteSpace=wrap;html=1;strokeColor=none;" vertex="1" parent="VBqdkLWTMI1Qyz4IS_f9-176">
          <mxGeometry x="353.55555555555554" y="16" width="11.466666666666665" height="8" as="geometry" />
        </mxCell>
        <mxCell id="VBqdkLWTMI1Qyz4IS_f9-181" value="" style="rounded=0;whiteSpace=wrap;html=1;strokeColor=none;" vertex="1" parent="VBqdkLWTMI1Qyz4IS_f9-176">
          <mxGeometry x="372.66666666666663" y="16" width="11.466666666666665" height="8" as="geometry" />
        </mxCell>
        <mxCell id="VBqdkLWTMI1Qyz4IS_f9-182" value="" style="rounded=0;whiteSpace=wrap;html=1;strokeColor=none;" vertex="1" parent="VBqdkLWTMI1Qyz4IS_f9-176">
          <mxGeometry x="391.7777777777778" y="16" width="11.466666666666665" height="8" as="geometry" />
        </mxCell>
        <mxCell id="VBqdkLWTMI1Qyz4IS_f9-183" style="rounded=0;orthogonalLoop=1;jettySize=auto;html=1;endArrow=none;endFill=0;strokeWidth=4;entryX=0.478;entryY=-0.031;entryDx=0;entryDy=0;entryPerimeter=0;edgeStyle=orthogonalEdgeStyle;exitX=0.417;exitY=0.995;exitDx=0;exitDy=0;exitPerimeter=0;" edge="1" parent="1" source="siB9gwOaP5ev9PkQdLU9-27" target="VBqdkLWTMI1Qyz4IS_f9-177">
          <mxGeometry relative="1" as="geometry">
            <mxPoint x="540" y="345" as="targetPoint" />
            <mxPoint x="540" y="280" as="sourcePoint" />
          </mxGeometry>
        </mxCell>
        <mxCell id="VBqdkLWTMI1Qyz4IS_f9-184" value="" style="group" connectable="0" vertex="1" parent="1">
          <mxGeometry x="833" y="559.9994117647059" width="80" height="93.5305882352942" as="geometry" />
        </mxCell>
        <mxCell id="VBqdkLWTMI1Qyz4IS_f9-185" value="" style="rounded=1;whiteSpace=wrap;html=1;direction=south;fillColor=#ffb20d;arcSize=7;strokeColor=#d79b00;rotation=90;" vertex="1" parent="VBqdkLWTMI1Qyz4IS_f9-184">
          <mxGeometry x="15.710000000000036" y="-10.179411764705833" width="19.641176470588235" height="40" as="geometry" />
        </mxCell>
        <mxCell id="VBqdkLWTMI1Qyz4IS_f9-186" value="" style="rounded=0;whiteSpace=wrap;html=1;strokeWidth=1;fillColor=#a2d460;strokeColor=#60a512;fontSize=10;gradientColor=#60a512;rotation=90;" vertex="1" parent="VBqdkLWTMI1Qyz4IS_f9-184">
          <mxGeometry x="-2.9999999999999716" y="10.530588235294204" width="86" height="80" as="geometry" />
        </mxCell>
        <mxCell id="VBqdkLWTMI1Qyz4IS_f9-187" value="" style="ellipse;whiteSpace=wrap;html=1;aspect=fixed;strokeWidth=3;shadow=0;strokeColor=#ffffff;rotation=90;" vertex="1" parent="VBqdkLWTMI1Qyz4IS_f9-184">
          <mxGeometry x="73.71000000000004" y="12.820588235294167" width="2" height="2" as="geometry" />
        </mxCell>
        <mxCell id="VBqdkLWTMI1Qyz4IS_f9-188" value="" style="ellipse;whiteSpace=wrap;html=1;aspect=fixed;strokeWidth=3;shadow=0;strokeColor=#ffffff;rotation=90;" vertex="1" parent="VBqdkLWTMI1Qyz4IS_f9-184">
          <mxGeometry x="73.71000000000004" y="85.82058823529417" width="2" height="2" as="geometry" />
        </mxCell>
        <mxCell id="VBqdkLWTMI1Qyz4IS_f9-189" value="" style="ellipse;whiteSpace=wrap;html=1;aspect=fixed;strokeWidth=3;shadow=0;strokeColor=#ffffff;rotation=90;" vertex="1" parent="VBqdkLWTMI1Qyz4IS_f9-184">
          <mxGeometry x="5.710000000000036" y="12.820588235294167" width="2" height="2" as="geometry" />
        </mxCell>
        <mxCell id="VBqdkLWTMI1Qyz4IS_f9-190" value="" style="ellipse;whiteSpace=wrap;html=1;aspect=fixed;strokeWidth=3;shadow=0;strokeColor=#ffffff;rotation=90;" vertex="1" parent="VBqdkLWTMI1Qyz4IS_f9-184">
          <mxGeometry x="5.710000000000036" y="85.82058823529417" width="2" height="2" as="geometry" />
        </mxCell>
        <mxCell id="VBqdkLWTMI1Qyz4IS_f9-191" value="" style="rounded=1;whiteSpace=wrap;html=1;fillColor=#f8cecc;strokeColor=#b85450;" vertex="1" parent="VBqdkLWTMI1Qyz4IS_f9-184">
          <mxGeometry x="5" y="20" width="70" height="10" as="geometry" />
        </mxCell>
        <mxCell id="VBqdkLWTMI1Qyz4IS_f9-192" value="" style="rounded=1;whiteSpace=wrap;html=1;fillColor=#f8cecc;strokeColor=#b85450;" vertex="1" parent="VBqdkLWTMI1Qyz4IS_f9-184">
          <mxGeometry x="5" y="30" width="70" height="10" as="geometry" />
        </mxCell>
        <mxCell id="VBqdkLWTMI1Qyz4IS_f9-193" value="" style="rounded=1;whiteSpace=wrap;html=1;fillColor=#f8cecc;strokeColor=#b85450;" vertex="1" parent="VBqdkLWTMI1Qyz4IS_f9-184">
          <mxGeometry x="5" y="40" width="70" height="10" as="geometry" />
        </mxCell>
        <mxCell id="VBqdkLWTMI1Qyz4IS_f9-194" value="" style="rounded=1;whiteSpace=wrap;html=1;fillColor=#f8cecc;strokeColor=#b85450;" vertex="1" parent="VBqdkLWTMI1Qyz4IS_f9-184">
          <mxGeometry x="5" y="50" width="70" height="10" as="geometry" />
        </mxCell>
        <mxCell id="VBqdkLWTMI1Qyz4IS_f9-195" value="" style="rounded=1;whiteSpace=wrap;html=1;gradientColor=#ffaa05;fillColor=#ffcb26;strokeColor=#d79b00;" vertex="1" parent="VBqdkLWTMI1Qyz4IS_f9-184">
          <mxGeometry x="5" y="60" width="70" height="10" as="geometry" />
        </mxCell>
        <mxCell id="VBqdkLWTMI1Qyz4IS_f9-196" value="" style="rounded=1;whiteSpace=wrap;html=1;gradientColor=#ffaa05;fillColor=#ffcb26;strokeColor=#d79b00;" vertex="1" parent="VBqdkLWTMI1Qyz4IS_f9-184">
          <mxGeometry x="5" y="70" width="70" height="10" as="geometry" />
        </mxCell>
        <mxCell id="VBqdkLWTMI1Qyz4IS_f9-197" value="" style="group" connectable="0" vertex="1" parent="1">
          <mxGeometry x="930" y="559.9994117647059" width="80" height="93.5305882352942" as="geometry" />
        </mxCell>
        <mxCell id="VBqdkLWTMI1Qyz4IS_f9-198" value="" style="rounded=1;whiteSpace=wrap;html=1;direction=south;fillColor=#ffb20d;arcSize=7;strokeColor=#d79b00;rotation=90;" vertex="1" parent="VBqdkLWTMI1Qyz4IS_f9-197">
          <mxGeometry x="15.710000000000036" y="-10.179411764705833" width="19.641176470588235" height="40" as="geometry" />
        </mxCell>
        <mxCell id="VBqdkLWTMI1Qyz4IS_f9-199" value="" style="rounded=0;whiteSpace=wrap;html=1;strokeWidth=1;fillColor=#a2d460;strokeColor=#60a512;fontSize=10;gradientColor=#60a512;rotation=90;" vertex="1" parent="VBqdkLWTMI1Qyz4IS_f9-197">
          <mxGeometry x="-2.9999999999999716" y="10.530588235294204" width="86" height="80" as="geometry" />
        </mxCell>
        <mxCell id="VBqdkLWTMI1Qyz4IS_f9-200" value="" style="ellipse;whiteSpace=wrap;html=1;aspect=fixed;strokeWidth=3;shadow=0;strokeColor=#ffffff;rotation=90;" vertex="1" parent="VBqdkLWTMI1Qyz4IS_f9-197">
          <mxGeometry x="73.71000000000004" y="12.820588235294167" width="2" height="2" as="geometry" />
        </mxCell>
        <mxCell id="VBqdkLWTMI1Qyz4IS_f9-201" value="" style="ellipse;whiteSpace=wrap;html=1;aspect=fixed;strokeWidth=3;shadow=0;strokeColor=#ffffff;rotation=90;" vertex="1" parent="VBqdkLWTMI1Qyz4IS_f9-197">
          <mxGeometry x="73.71000000000004" y="85.82058823529417" width="2" height="2" as="geometry" />
        </mxCell>
        <mxCell id="VBqdkLWTMI1Qyz4IS_f9-202" value="" style="ellipse;whiteSpace=wrap;html=1;aspect=fixed;strokeWidth=3;shadow=0;strokeColor=#ffffff;rotation=90;" vertex="1" parent="VBqdkLWTMI1Qyz4IS_f9-197">
          <mxGeometry x="5.710000000000036" y="12.820588235294167" width="2" height="2" as="geometry" />
        </mxCell>
        <mxCell id="VBqdkLWTMI1Qyz4IS_f9-203" value="" style="ellipse;whiteSpace=wrap;html=1;aspect=fixed;strokeWidth=3;shadow=0;strokeColor=#ffffff;rotation=90;" vertex="1" parent="VBqdkLWTMI1Qyz4IS_f9-197">
          <mxGeometry x="5.710000000000036" y="85.82058823529417" width="2" height="2" as="geometry" />
        </mxCell>
        <mxCell id="VBqdkLWTMI1Qyz4IS_f9-204" value="" style="rounded=1;whiteSpace=wrap;html=1;gradientColor=#ffaa05;fillColor=#ffcb26;strokeColor=#d79b00;" vertex="1" parent="VBqdkLWTMI1Qyz4IS_f9-197">
          <mxGeometry x="5" y="20" width="70" height="10" as="geometry" />
        </mxCell>
        <mxCell id="VBqdkLWTMI1Qyz4IS_f9-205" value="" style="rounded=1;whiteSpace=wrap;html=1;gradientColor=#ffaa05;fillColor=#ffcb26;strokeColor=#d79b00;" vertex="1" parent="VBqdkLWTMI1Qyz4IS_f9-197">
          <mxGeometry x="5" y="30" width="70" height="10" as="geometry" />
        </mxCell>
        <mxCell id="VBqdkLWTMI1Qyz4IS_f9-206" value="" style="rounded=1;whiteSpace=wrap;html=1;gradientColor=#ffaa05;fillColor=#ffcb26;strokeColor=#d79b00;" vertex="1" parent="VBqdkLWTMI1Qyz4IS_f9-197">
          <mxGeometry x="5" y="40" width="70" height="10" as="geometry" />
        </mxCell>
        <mxCell id="VBqdkLWTMI1Qyz4IS_f9-207" value="" style="rounded=1;whiteSpace=wrap;html=1;gradientColor=#ffaa05;fillColor=#ffcb26;strokeColor=#d79b00;" vertex="1" parent="VBqdkLWTMI1Qyz4IS_f9-197">
          <mxGeometry x="5" y="50" width="70" height="10" as="geometry" />
        </mxCell>
        <mxCell id="VBqdkLWTMI1Qyz4IS_f9-208" value="" style="rounded=1;whiteSpace=wrap;html=1;gradientColor=#ffaa05;fillColor=#ffcb26;strokeColor=#d79b00;" vertex="1" parent="VBqdkLWTMI1Qyz4IS_f9-197">
          <mxGeometry x="5" y="60" width="70" height="10" as="geometry" />
        </mxCell>
        <mxCell id="VBqdkLWTMI1Qyz4IS_f9-209" value="" style="rounded=1;whiteSpace=wrap;html=1;gradientColor=#ffaa05;fillColor=#ffcb26;strokeColor=#d79b00;" vertex="1" parent="VBqdkLWTMI1Qyz4IS_f9-197">
          <mxGeometry x="5" y="70" width="70" height="10" as="geometry" />
        </mxCell>
        <mxCell id="VBqdkLWTMI1Qyz4IS_f9-210" value="" style="group" connectable="0" vertex="1" parent="1">
          <mxGeometry x="640" y="559.9994117647059" width="80" height="93.5305882352942" as="geometry" />
        </mxCell>
        <mxCell id="VBqdkLWTMI1Qyz4IS_f9-211" value="" style="rounded=1;whiteSpace=wrap;html=1;direction=south;fillColor=#ffb20d;arcSize=7;strokeColor=#d79b00;rotation=90;" vertex="1" parent="VBqdkLWTMI1Qyz4IS_f9-210">
          <mxGeometry x="15.710000000000036" y="-10.179411764705833" width="19.641176470588235" height="40" as="geometry" />
        </mxCell>
        <mxCell id="VBqdkLWTMI1Qyz4IS_f9-212" value="" style="rounded=0;whiteSpace=wrap;html=1;strokeWidth=1;fillColor=#a2d460;strokeColor=#60a512;fontSize=10;gradientColor=#60a512;rotation=90;" vertex="1" parent="VBqdkLWTMI1Qyz4IS_f9-210">
          <mxGeometry x="-2.9999999999999716" y="10.530588235294204" width="86" height="80" as="geometry" />
        </mxCell>
        <mxCell id="VBqdkLWTMI1Qyz4IS_f9-213" value="" style="ellipse;whiteSpace=wrap;html=1;aspect=fixed;strokeWidth=3;shadow=0;strokeColor=#ffffff;rotation=90;" vertex="1" parent="VBqdkLWTMI1Qyz4IS_f9-210">
          <mxGeometry x="73.71000000000004" y="12.820588235294167" width="2" height="2" as="geometry" />
        </mxCell>
        <mxCell id="VBqdkLWTMI1Qyz4IS_f9-214" value="" style="ellipse;whiteSpace=wrap;html=1;aspect=fixed;strokeWidth=3;shadow=0;strokeColor=#ffffff;rotation=90;" vertex="1" parent="VBqdkLWTMI1Qyz4IS_f9-210">
          <mxGeometry x="73.71000000000004" y="85.82058823529417" width="2" height="2" as="geometry" />
        </mxCell>
        <mxCell id="VBqdkLWTMI1Qyz4IS_f9-215" value="" style="ellipse;whiteSpace=wrap;html=1;aspect=fixed;strokeWidth=3;shadow=0;strokeColor=#ffffff;rotation=90;" vertex="1" parent="VBqdkLWTMI1Qyz4IS_f9-210">
          <mxGeometry x="5.710000000000036" y="12.820588235294167" width="2" height="2" as="geometry" />
        </mxCell>
        <mxCell id="VBqdkLWTMI1Qyz4IS_f9-216" value="" style="ellipse;whiteSpace=wrap;html=1;aspect=fixed;strokeWidth=3;shadow=0;strokeColor=#ffffff;rotation=90;" vertex="1" parent="VBqdkLWTMI1Qyz4IS_f9-210">
          <mxGeometry x="5.710000000000036" y="85.82058823529417" width="2" height="2" as="geometry" />
        </mxCell>
        <mxCell id="VBqdkLWTMI1Qyz4IS_f9-217" value="" style="rounded=1;whiteSpace=wrap;html=1;fillColor=#f8cecc;strokeColor=#b85450;" vertex="1" parent="VBqdkLWTMI1Qyz4IS_f9-210">
          <mxGeometry x="5" y="20" width="70" height="10" as="geometry" />
        </mxCell>
        <mxCell id="VBqdkLWTMI1Qyz4IS_f9-218" value="" style="rounded=1;whiteSpace=wrap;html=1;fillColor=#f8cecc;strokeColor=#b85450;" vertex="1" parent="VBqdkLWTMI1Qyz4IS_f9-210">
          <mxGeometry x="5" y="30" width="70" height="10" as="geometry" />
        </mxCell>
        <mxCell id="VBqdkLWTMI1Qyz4IS_f9-219" value="" style="rounded=1;whiteSpace=wrap;html=1;fillColor=#f8cecc;strokeColor=#b85450;" vertex="1" parent="VBqdkLWTMI1Qyz4IS_f9-210">
          <mxGeometry x="5" y="40" width="70" height="10" as="geometry" />
        </mxCell>
        <mxCell id="VBqdkLWTMI1Qyz4IS_f9-220" value="" style="rounded=1;whiteSpace=wrap;html=1;fillColor=#dae8fc;strokeColor=#6c8ebf;" vertex="1" parent="VBqdkLWTMI1Qyz4IS_f9-210">
          <mxGeometry x="5" y="50" width="70" height="10" as="geometry" />
        </mxCell>
        <mxCell id="VBqdkLWTMI1Qyz4IS_f9-221" value="" style="rounded=1;whiteSpace=wrap;html=1;fillColor=#dae8fc;strokeColor=#6c8ebf;" vertex="1" parent="VBqdkLWTMI1Qyz4IS_f9-210">
          <mxGeometry x="5" y="60" width="70" height="10" as="geometry" />
        </mxCell>
        <mxCell id="VBqdkLWTMI1Qyz4IS_f9-222" value="" style="rounded=1;whiteSpace=wrap;html=1;fillColor=#dae8fc;strokeColor=#6c8ebf;" vertex="1" parent="VBqdkLWTMI1Qyz4IS_f9-210">
          <mxGeometry x="5" y="70" width="70" height="10" as="geometry" />
        </mxCell>
        <mxCell id="VBqdkLWTMI1Qyz4IS_f9-223" value="" style="group" connectable="0" vertex="1" parent="1">
          <mxGeometry x="737" y="559.9994117647059" width="80" height="93.5305882352942" as="geometry" />
        </mxCell>
        <mxCell id="VBqdkLWTMI1Qyz4IS_f9-224" value="" style="rounded=1;whiteSpace=wrap;html=1;direction=south;fillColor=#ffb20d;arcSize=7;strokeColor=#d79b00;rotation=90;" vertex="1" parent="VBqdkLWTMI1Qyz4IS_f9-223">
          <mxGeometry x="15.710000000000036" y="-10.179411764705833" width="19.641176470588235" height="40" as="geometry" />
        </mxCell>
        <mxCell id="VBqdkLWTMI1Qyz4IS_f9-225" value="" style="rounded=0;whiteSpace=wrap;html=1;strokeWidth=1;fillColor=#a2d460;strokeColor=#60a512;fontSize=10;gradientColor=#60a512;rotation=90;" vertex="1" parent="VBqdkLWTMI1Qyz4IS_f9-223">
          <mxGeometry x="-2.9999999999999716" y="10.530588235294204" width="86" height="80" as="geometry" />
        </mxCell>
        <mxCell id="VBqdkLWTMI1Qyz4IS_f9-226" value="" style="ellipse;whiteSpace=wrap;html=1;aspect=fixed;strokeWidth=3;shadow=0;strokeColor=#ffffff;rotation=90;" vertex="1" parent="VBqdkLWTMI1Qyz4IS_f9-223">
          <mxGeometry x="73.71000000000004" y="12.820588235294167" width="2" height="2" as="geometry" />
        </mxCell>
        <mxCell id="VBqdkLWTMI1Qyz4IS_f9-227" value="" style="ellipse;whiteSpace=wrap;html=1;aspect=fixed;strokeWidth=3;shadow=0;strokeColor=#ffffff;rotation=90;" vertex="1" parent="VBqdkLWTMI1Qyz4IS_f9-223">
          <mxGeometry x="73.71000000000004" y="85.82058823529417" width="2" height="2" as="geometry" />
        </mxCell>
        <mxCell id="VBqdkLWTMI1Qyz4IS_f9-228" value="" style="ellipse;whiteSpace=wrap;html=1;aspect=fixed;strokeWidth=3;shadow=0;strokeColor=#ffffff;rotation=90;" vertex="1" parent="VBqdkLWTMI1Qyz4IS_f9-223">
          <mxGeometry x="5.710000000000036" y="12.820588235294167" width="2" height="2" as="geometry" />
        </mxCell>
        <mxCell id="VBqdkLWTMI1Qyz4IS_f9-229" value="" style="ellipse;whiteSpace=wrap;html=1;aspect=fixed;strokeWidth=3;shadow=0;strokeColor=#ffffff;rotation=90;" vertex="1" parent="VBqdkLWTMI1Qyz4IS_f9-223">
          <mxGeometry x="5.710000000000036" y="85.82058823529417" width="2" height="2" as="geometry" />
        </mxCell>
        <mxCell id="VBqdkLWTMI1Qyz4IS_f9-230" value="" style="rounded=1;whiteSpace=wrap;html=1;fillColor=#dae8fc;strokeColor=#6c8ebf;" vertex="1" parent="VBqdkLWTMI1Qyz4IS_f9-223">
          <mxGeometry x="5" y="20" width="70" height="10" as="geometry" />
        </mxCell>
        <mxCell id="VBqdkLWTMI1Qyz4IS_f9-231" value="" style="rounded=1;whiteSpace=wrap;html=1;fillColor=#dae8fc;strokeColor=#6c8ebf;" vertex="1" parent="VBqdkLWTMI1Qyz4IS_f9-223">
          <mxGeometry x="5" y="30" width="70" height="10" as="geometry" />
        </mxCell>
        <mxCell id="VBqdkLWTMI1Qyz4IS_f9-232" value="" style="rounded=1;whiteSpace=wrap;html=1;fillColor=#dae8fc;strokeColor=#6c8ebf;" vertex="1" parent="VBqdkLWTMI1Qyz4IS_f9-223">
          <mxGeometry x="5" y="40" width="70" height="10" as="geometry" />
        </mxCell>
        <mxCell id="VBqdkLWTMI1Qyz4IS_f9-233" value="" style="rounded=1;whiteSpace=wrap;html=1;fillColor=#dae8fc;strokeColor=#6c8ebf;" vertex="1" parent="VBqdkLWTMI1Qyz4IS_f9-223">
          <mxGeometry x="5" y="50" width="70" height="10" as="geometry" />
        </mxCell>
        <mxCell id="VBqdkLWTMI1Qyz4IS_f9-234" value="" style="rounded=1;whiteSpace=wrap;html=1;fillColor=#dae8fc;strokeColor=#6c8ebf;" vertex="1" parent="VBqdkLWTMI1Qyz4IS_f9-223">
          <mxGeometry x="5" y="60" width="70" height="10" as="geometry" />
        </mxCell>
        <mxCell id="VBqdkLWTMI1Qyz4IS_f9-235" value="" style="rounded=1;whiteSpace=wrap;html=1;fillColor=#f8cecc;strokeColor=#b85450;" vertex="1" parent="VBqdkLWTMI1Qyz4IS_f9-223">
          <mxGeometry x="5" y="70" width="70" height="10" as="geometry" />
        </mxCell>
        <mxCell id="VBqdkLWTMI1Qyz4IS_f9-236" style="rounded=0;orthogonalLoop=1;jettySize=auto;html=1;entryX=0.5;entryY=1;entryDx=0;entryDy=0;strokeColor=default;strokeWidth=4;align=center;verticalAlign=middle;fontFamily=Helvetica;fontSize=11;fontColor=default;labelBackgroundColor=default;endArrow=none;endFill=0;exitX=0.176;exitY=0.995;exitDx=0;exitDy=0;exitPerimeter=0;" edge="1" parent="1" target="VBqdkLWTMI1Qyz4IS_f9-211">
          <mxGeometry relative="1" as="geometry">
            <mxPoint x="666" y="480" as="sourcePoint" />
          </mxGeometry>
        </mxCell>
        <mxCell id="VBqdkLWTMI1Qyz4IS_f9-237" style="rounded=0;orthogonalLoop=1;jettySize=auto;html=1;entryX=0.4;entryY=1;entryDx=0;entryDy=0;entryPerimeter=0;strokeColor=default;strokeWidth=4;align=center;verticalAlign=middle;fontFamily=Helvetica;fontSize=11;fontColor=default;labelBackgroundColor=default;endArrow=none;endFill=0;" edge="1" parent="1" source="VBqdkLWTMI1Qyz4IS_f9-224">
          <mxGeometry relative="1" as="geometry">
            <mxPoint x="762" y="480" as="targetPoint" />
          </mxGeometry>
        </mxCell>
        <mxCell id="VBqdkLWTMI1Qyz4IS_f9-238" style="rounded=0;orthogonalLoop=1;jettySize=auto;html=1;entryX=0.623;entryY=1;entryDx=0;entryDy=0;entryPerimeter=0;strokeColor=default;strokeWidth=4;align=center;verticalAlign=middle;fontFamily=Helvetica;fontSize=11;fontColor=default;labelBackgroundColor=default;endArrow=none;endFill=0;" edge="1" parent="1" source="VBqdkLWTMI1Qyz4IS_f9-185">
          <mxGeometry relative="1" as="geometry">
            <mxPoint x="858" y="480" as="targetPoint" />
          </mxGeometry>
        </mxCell>
        <mxCell id="VBqdkLWTMI1Qyz4IS_f9-239" style="rounded=0;orthogonalLoop=1;jettySize=auto;html=1;entryX=0.852;entryY=1;entryDx=0;entryDy=0;entryPerimeter=0;strokeColor=default;strokeWidth=4;align=center;verticalAlign=middle;fontFamily=Helvetica;fontSize=11;fontColor=default;labelBackgroundColor=default;endArrow=none;endFill=0;" edge="1" parent="1" source="VBqdkLWTMI1Qyz4IS_f9-198">
          <mxGeometry relative="1" as="geometry">
            <mxPoint x="956" y="480" as="targetPoint" />
          </mxGeometry>
        </mxCell>
        <mxCell id="VBqdkLWTMI1Qyz4IS_f9-240" value="x4 PCIe" style="text;html=1;align=center;verticalAlign=middle;resizable=0;points=[];autosize=1;strokeColor=none;fillColor=none;fontFamily=Helvetica;fontSize=11;fontColor=default;labelBackgroundColor=default;" vertex="1" parent="1">
          <mxGeometry x="955" y="480" width="60" height="30" as="geometry" />
        </mxCell>
        <mxCell id="VBqdkLWTMI1Qyz4IS_f9-241" value="" style="group" vertex="1" connectable="0" parent="1">
          <mxGeometry x="610" y="440" width="430" height="40" as="geometry" />
        </mxCell>
        <mxCell id="VBqdkLWTMI1Qyz4IS_f9-242" value="CXL Switch" style="rounded=1;whiteSpace=wrap;html=1;fillColor=#d5e8d4;strokeColor=#82b366;" vertex="1" parent="VBqdkLWTMI1Qyz4IS_f9-241">
          <mxGeometry width="430" height="40" as="geometry" />
        </mxCell>
        <mxCell id="VBqdkLWTMI1Qyz4IS_f9-243" value="" style="rounded=0;whiteSpace=wrap;html=1;strokeColor=none;" vertex="1" parent="VBqdkLWTMI1Qyz4IS_f9-241">
          <mxGeometry x="315.3333333333333" y="16" width="11.466666666666665" height="8" as="geometry" />
        </mxCell>
        <mxCell id="VBqdkLWTMI1Qyz4IS_f9-244" value="" style="rounded=0;whiteSpace=wrap;html=1;strokeColor=none;" vertex="1" parent="VBqdkLWTMI1Qyz4IS_f9-241">
          <mxGeometry x="334.4444444444444" y="16" width="11.466666666666665" height="8" as="geometry" />
        </mxCell>
        <mxCell id="VBqdkLWTMI1Qyz4IS_f9-245" value="" style="rounded=0;whiteSpace=wrap;html=1;strokeColor=none;" vertex="1" parent="VBqdkLWTMI1Qyz4IS_f9-241">
          <mxGeometry x="353.55555555555554" y="16" width="11.466666666666665" height="8" as="geometry" />
        </mxCell>
        <mxCell id="VBqdkLWTMI1Qyz4IS_f9-246" value="" style="rounded=0;whiteSpace=wrap;html=1;strokeColor=none;" vertex="1" parent="VBqdkLWTMI1Qyz4IS_f9-241">
          <mxGeometry x="372.66666666666663" y="16" width="11.466666666666665" height="8" as="geometry" />
        </mxCell>
        <mxCell id="VBqdkLWTMI1Qyz4IS_f9-247" value="" style="rounded=0;whiteSpace=wrap;html=1;strokeColor=none;" vertex="1" parent="VBqdkLWTMI1Qyz4IS_f9-241">
          <mxGeometry x="391.7777777777778" y="16" width="11.466666666666665" height="8" as="geometry" />
        </mxCell>
        <mxCell id="VBqdkLWTMI1Qyz4IS_f9-248" style="rounded=0;orthogonalLoop=1;jettySize=auto;html=1;endArrow=none;endFill=0;strokeWidth=4;edgeStyle=orthogonalEdgeStyle;exitX=0.604;exitY=1.007;exitDx=0;exitDy=0;exitPerimeter=0;" edge="1" parent="1" source="siB9gwOaP5ev9PkQdLU9-27" target="VBqdkLWTMI1Qyz4IS_f9-242">
          <mxGeometry relative="1" as="geometry">
            <mxPoint x="525.5" y="449" as="targetPoint" />
            <mxPoint x="749.5" y="290" as="sourcePoint" />
          </mxGeometry>
        </mxCell>
      </root>
    </mxGraphModel>
  </diagram>
</mxfile>
